<?xml version="1.0" encoding="utf-8"?><!-- Uploaded to: SVG Repo, www.svgrepo.com, Generator: SVG Repo Mixer Tools -->
<svg fill="#000000" width="800px" height="800px" viewBox="0 0 24 24" id="date-alt-check" data-name="Flat Line" xmlns="http://www.w3.org/2000/svg" class="icon flat-line"><circle id="secondary" cx="12" cy="15" r="6" style="fill: rgb(44, 169, 188); stroke-width: 2;"></circle><path id="primary" d="M7.54,19H4a1,1,0,0,1-1-1V5A1,1,0,0,1,4,4H20a1,1,0,0,1,1,1V18a1,1,0,0,1-1,1H16.46" style="fill: none; stroke: rgb(0, 0, 0); stroke-linecap: round; stroke-linejoin: round; stroke-width: 2;"></path><path id="primary-2" data-name="primary" d="M12,9a6,6,0,1,0,6,6A6,6,0,0,0,12,9ZM3,9H21M16,3V6M8,3V6" style="fill: none; stroke: rgb(0, 0, 0); stroke-linecap: round; stroke-linejoin: round; stroke-width: 2;"></path><polyline id="primary-3" data-name="primary" points="10 16 11 17 14 14" style="fill: none; stroke: rgb(0, 0, 0); stroke-linecap: round; stroke-linejoin: round; stroke-width: 2;"></polyline></svg>