<?xml version="1.0" encoding="iso-8859-1"?>
<!-- Uploaded to: SVG Repo, www.svgrepo.com, Generator: SVG Repo Mixer Tools -->
<svg height="800px" width="800px" version="1.1" id="Layer_1" xmlns="http://www.w3.org/2000/svg" xmlns:xlink="http://www.w3.org/1999/xlink" 
	 viewBox="0 0 512 512" xml:space="preserve">
<path style="fill:#00384E;" d="M310.624,0H64v512h384V137.376L310.624,0z M320,54.624L393.376,128H320V54.624z M96,480V32h192v128
	h128v320H96z"/>
<polygon style="fill:#72C6EF;" points="384,448 128,448 128,64 288,64 288,160 384,160 "/>
<g>
	<circle style="fill:#00384D;" cx="256" cy="240" r="16"/>
	<polygon style="fill:#00384D;" points="272,368 272,304 272,272 208,272 208,304 240,304 240,368 208,368 208,400 304,400 304,368 
			"/>
</g>
</svg>