<!DOCTYPE svg PUBLIC "-//W3C//DTD SVG 1.1//EN" "http://www.w3.org/Graphics/SVG/1.1/DTD/svg11.dtd">
<!-- Uploaded to: SVG Repo, www.svgrepo.com, Transformed by: SVG Repo Mixer Tools -->
<svg fill="#e70d0d" version="1.1" id="Capa_1" xmlns="http://www.w3.org/2000/svg" xmlns:xlink="http://www.w3.org/1999/xlink" width="800px" height="800px" viewBox="0 0 575.279 575.279" xml:space="preserve" stroke="#e70d0d">
<g id="SVGRepo_bgCarrier" stroke-width="0"/>
<g id="SVGRepo_tracerCarrier" stroke-linecap="round" stroke-linejoin="round"/>
<g id="SVGRepo_iconCarrier"> <g> <g> <path d="M287.64,575.279c158.86,0,287.639-128.779,287.639-287.639C575.279,128.78,446.5,0,287.64,0S0,128.78,0,287.641 C0,446.5,128.78,575.279,287.64,575.279z M310.59,135.295V236.03c0,12.674-10.275,22.95-22.95,22.95s-22.95-10.275-22.95-22.95 V135.295V89.034V74.058c0-12.674,10.276-22.95,22.95-22.95s22.95,10.275,22.95,22.95v14.976V135.295z M240.21,93.336v47.559 c-63.994,20.189-110.527,80.092-110.527,150.671c0,87.096,70.857,157.957,157.957,157.957c87.1,0,157.958-70.857,157.958-157.957 c0-70.579-46.533-130.482-110.527-150.671V93.336c89.6,21.441,156.428,102.152,156.428,198.226 c0,112.406-91.449,203.857-203.858,203.857c-112.409,0-203.857-91.447-203.857-203.857 C83.783,195.488,150.61,114.778,240.21,93.336z"/> </g> </g> </g>
</svg>