<svg fill="#f8c659" version="1.1" id="Capa_1" xmlns="http://www.w3.org/2000/svg" xmlns:xlink="http://www.w3.org/1999/xlink" viewBox="0 0 274.731 274.732" xml:space="preserve" stroke="#f8c659"><g id="SVGRepo_bgCarrier" stroke-width="0"></g><g id="SVGRepo_tracerCarrier" stroke-linecap="round" stroke-linejoin="round"></g><g id="SVGRepo_iconCarrier"> <g> <g> <path d="M104.419,126.029L90.395,26.662h93.336l-13.883,98.445l2.864,5.792l22.782,3.32l16.795-119.018 c0.541-3.831-0.612-7.698-3.146-10.613S202.939,0,199.072,0H75.053c-3.867,0-7.545,1.672-10.079,4.588 c-2.519,2.916-3.669,6.782-3.129,10.613l16.799,119.093l23.353-3.396L104.419,126.029z"></path> <path d="M235.798,156.46c-1.573-4.827-5.753-8.334-10.761-9.066l-29.543-4.287l-22.782-3.315l-2.864-5.8l-20.537-41.611 c-2.239-4.548-6.866-7.434-11.946-7.434c-5.077,0-9.713,2.886-11.946,7.434l-20.993,42.539l-2.417,4.872l-23.353,3.394 l-28.961,4.209c-5.017,0.732-9.188,4.239-10.761,9.073c-1.561,4.821-0.264,10.13,3.381,13.673l37.848,36.894l-8.923,52.109 c-0.867,5.002,1.186,10.058,5.288,13.042c2.327,1.676,5.074,2.547,7.848,2.547c2.114,0,4.249-0.505,6.197-1.537l46.787-24.596 l46.786,24.596c4.492,2.354,9.932,1.963,14.039-1.01c4.107-2.984,6.167-8.04,5.309-13.042l-8.936-52.109l37.849-36.894 C236.062,166.597,237.359,161.289,235.798,156.46z"></path> </g> </g> </g></svg>